<svg xmlns="http://www.w3.org/2000/svg" xmlns:xlink="http://www.w3.org/1999/xlink" width="512" zoomAndPan="magnify" viewBox="0 0 384 383.999986" height="512" preserveAspectRatio="xMidYMid meet" version="1.0"><defs><g/><clipPath id="f3bc5aa406"><path d="M 78.621094 75 L 305.121094 75 L 305.121094 309 L 78.621094 309 Z M 78.621094 75 " clip-rule="nonzero"/></clipPath><clipPath id="b1f06938ae"><path d="M 217 261 L 270 261 L 270 312 L 217 312 Z M 217 261 " clip-rule="nonzero"/></clipPath><clipPath id="7733f97f62"><path d="M 207.175781 290.445312 L 257.824219 252.980469 L 280.570312 283.734375 L 229.921875 321.199219 Z M 207.175781 290.445312 " clip-rule="nonzero"/></clipPath><clipPath id="f9b2faa097"><path d="M 207.175781 290.445312 L 257.824219 252.980469 L 280.570312 283.734375 L 229.921875 321.199219 Z M 207.175781 290.445312 " clip-rule="nonzero"/></clipPath><clipPath id="5feafc32d4"><path d="M 207.214844 290.417969 L 257.664062 253.101562 L 280.277344 283.675781 L 229.828125 320.988281 Z M 207.214844 290.417969 " clip-rule="nonzero"/></clipPath><clipPath id="1e91d72ace"><path d="M 207.214844 290.417969 L 257.664062 253.101562 L 280.277344 283.675781 L 229.828125 320.988281 Z M 207.214844 290.417969 " clip-rule="nonzero"/></clipPath><clipPath id="9d5401a206"><path d="M 113 73 L 166 73 L 166 125 L 113 125 Z M 113 73 " clip-rule="nonzero"/></clipPath><clipPath id="43631a40f4"><path d="M 103.675781 103.070312 L 154.324219 65.609375 L 177.070312 96.359375 L 126.421875 133.824219 Z M 103.675781 103.070312 " clip-rule="nonzero"/></clipPath><clipPath id="df5f37fdcd"><path d="M 103.675781 103.070312 L 154.324219 65.609375 L 177.070312 96.359375 L 126.421875 133.824219 Z M 103.675781 103.070312 " clip-rule="nonzero"/></clipPath><clipPath id="9d24fc0d70"><path d="M 103.714844 103.042969 L 154.164062 65.726562 L 176.777344 96.300781 L 126.328125 133.617188 Z M 103.714844 103.042969 " clip-rule="nonzero"/></clipPath><clipPath id="e03fe6cb6c"><path d="M 103.714844 103.042969 L 154.164062 65.726562 L 176.777344 96.300781 L 126.328125 133.617188 Z M 103.714844 103.042969 " clip-rule="nonzero"/></clipPath></defs><rect x="-38.4" width="460.8" fill="#ffffff" y="-38.399999" height="460.799983" fill-opacity="1"/><rect x="-38.4" width="460.8" fill="#ffffff" y="-38.399999" height="460.799983" fill-opacity="1"/><g clip-path="url(#f3bc5aa406)"><path fill="#f13aa8" d="M 163.488281 78.546875 C 165.324219 78.085938 167.171875 77.667969 169.03125 77.296875 C 170.886719 76.925781 172.75 76.601562 174.625 76.320312 C 176.496094 76.039062 178.375 75.804688 180.257812 75.617188 C 182.144531 75.429688 184.03125 75.285156 185.921875 75.1875 C 187.8125 75.089844 189.707031 75.039062 191.601562 75.03125 C 193.492188 75.027344 195.386719 75.066406 197.277344 75.15625 C 199.167969 75.242188 201.058594 75.375 202.941406 75.550781 C 204.828125 75.730469 206.707031 75.953125 208.582031 76.222656 C 210.457031 76.492188 212.324219 76.808594 214.183594 77.167969 C 216.042969 77.53125 217.890625 77.933594 219.730469 78.386719 C 221.570312 78.835938 223.398438 79.328125 225.210938 79.867188 C 227.027344 80.40625 228.828125 80.992188 230.617188 81.617188 C 232.402344 82.242188 234.171875 82.914062 235.929688 83.625 C 237.683594 84.339844 239.417969 85.09375 241.136719 85.890625 C 242.855469 86.6875 244.550781 87.523438 246.230469 88.402344 C 247.90625 89.285156 249.5625 90.203125 251.191406 91.164062 C 252.824219 92.121094 254.433594 93.121094 256.015625 94.160156 C 257.601562 95.199219 259.160156 96.273438 260.691406 97.386719 C 262.222656 98.5 263.726562 99.652344 265.203125 100.835938 C 266.675781 102.023438 268.125 103.246094 269.539062 104.503906 C 270.957031 105.757812 272.339844 107.050781 273.695312 108.375 C 275.046875 109.699219 276.367188 111.054688 277.65625 112.445312 C 278.945312 113.832031 280.199219 115.25 281.417969 116.699219 C 282.636719 118.148438 283.816406 119.628906 284.964844 121.132812 C 286.113281 122.640625 287.222656 124.175781 288.292969 125.734375 C 289.367188 127.296875 290.402344 128.882812 291.394531 130.492188 C 292.390625 132.105469 293.347656 133.738281 294.261719 135.394531 C 295.179688 137.050781 296.054688 138.730469 296.886719 140.429688 C 297.722656 142.132812 298.515625 143.851562 299.265625 145.589844 C 300.015625 147.328125 300.726562 149.082031 301.390625 150.855469 C 302.058594 152.628906 302.679688 154.417969 303.257812 156.21875 C 303.835938 158.023438 304.371094 159.839844 304.859375 161.667969 C 305.042969 162.34375 305.21875 163.03125 305.394531 163.734375 L 303.605469 164.355469 C 303.421875 163.621094 303.238281 162.886719 303.039062 162.152344 C 302.554688 160.339844 302.023438 158.539062 301.449219 156.753906 C 300.875 154.964844 300.257812 153.195312 299.597656 151.4375 C 298.9375 149.679688 298.234375 147.941406 297.488281 146.21875 C 296.742188 144.496094 295.957031 142.792969 295.125 141.109375 C 294.296875 139.425781 293.429688 137.765625 292.515625 136.121094 C 291.605469 134.480469 290.65625 132.863281 289.667969 131.269531 C 288.675781 129.675781 287.648438 128.105469 286.582031 126.558594 C 285.515625 125.015625 284.414062 123.5 283.269531 122.007812 C 282.128906 120.519531 280.953125 119.054688 279.742188 117.625 C 278.527344 116.191406 277.28125 114.789062 276 113.417969 C 274.71875 112.046875 273.40625 110.707031 272.058594 109.398438 C 270.710938 108.089844 269.335938 106.816406 267.925781 105.578125 C 266.515625 104.339844 265.078125 103.132812 263.609375 101.964844 C 262.140625 100.796875 260.644531 99.664062 259.121094 98.566406 C 257.597656 97.46875 256.050781 96.410156 254.476562 95.390625 C 252.898438 94.371094 251.300781 93.390625 249.675781 92.449219 C 248.054688 91.507812 246.40625 90.605469 244.742188 89.742188 C 243.074219 88.882812 241.386719 88.0625 239.675781 87.28125 C 237.96875 86.503906 236.246094 85.765625 234.5 85.074219 C 232.757812 84.378906 230.996094 83.726562 229.222656 83.121094 C 227.445312 82.511719 225.65625 81.945312 223.851562 81.425781 C 222.050781 80.90625 220.234375 80.429688 218.410156 80 C 216.582031 79.566406 214.746094 79.179688 212.902344 78.839844 C 211.054688 78.496094 209.203125 78.199219 207.34375 77.949219 C 205.484375 77.699219 203.617188 77.492188 201.746094 77.332031 C 199.878906 77.171875 198.003906 77.058594 196.128906 76.992188 C 194.253906 76.921875 192.378906 76.902344 190.5 76.925781 C 188.625 76.949219 186.75 77.019531 184.875 77.132812 C 183.003906 77.25 181.132812 77.410156 179.265625 77.617188 C 177.402344 77.824219 175.542969 78.078125 173.691406 78.378906 C 171.835938 78.675781 169.992188 79.019531 168.15625 79.40625 C 166.320312 79.796875 164.496094 80.230469 162.679688 80.707031 C 162.960938 79.992188 163.234375 79.28125 163.488281 78.550781 Z M 80.40625 219.882812 C 80.558594 220.484375 80.710938 221.082031 80.875 221.683594 C 81.359375 223.5 81.890625 225.304688 82.46875 227.097656 C 83.042969 228.890625 83.664062 230.664062 84.324219 232.425781 C 84.988281 234.1875 85.691406 235.929688 86.441406 237.65625 C 87.191406 239.382812 87.980469 241.089844 88.8125 242.777344 C 89.644531 244.464844 90.515625 246.132812 91.429688 247.777344 C 92.34375 249.421875 93.300781 251.042969 94.292969 252.640625 C 95.285156 254.238281 96.316406 255.8125 97.390625 257.359375 C 98.460938 258.90625 99.566406 260.425781 100.710938 261.917969 C 101.859375 263.410156 103.039062 264.875 104.257812 266.308594 C 105.472656 267.746094 106.726562 269.148438 108.011719 270.523438 C 109.296875 271.894531 110.617188 273.238281 111.96875 274.546875 C 113.320312 275.855469 114.703125 277.128906 116.117188 278.371094 C 117.53125 279.609375 118.976562 280.816406 120.449219 281.988281 C 121.921875 283.15625 123.425781 284.289062 124.953125 285.386719 C 126.484375 286.480469 128.039062 287.539062 129.617188 288.558594 C 131.199219 289.582031 132.804688 290.5625 134.433594 291.503906 C 136.0625 292.441406 137.714844 293.34375 139.390625 294.203125 C 141.0625 295.0625 142.757812 295.882812 144.46875 296.660156 C 146.183594 297.4375 147.914062 298.171875 149.664062 298.863281 C 151.414062 299.554688 153.179688 300.203125 154.960938 300.808594 C 156.742188 301.414062 158.539062 301.976562 160.347656 302.492188 C 162.15625 303.011719 163.976562 303.484375 165.808594 303.910156 C 167.640625 304.339844 169.484375 304.722656 171.335938 305.058594 C 173.183594 305.394531 175.042969 305.6875 176.910156 305.933594 C 178.773438 306.179688 180.644531 306.382812 182.519531 306.535156 C 184.394531 306.691406 186.273438 306.796875 188.152344 306.859375 C 190.035156 306.921875 191.914062 306.9375 193.796875 306.910156 C 195.679688 306.878906 197.558594 306.804688 199.433594 306.679688 C 201.3125 306.558594 203.1875 306.390625 205.054688 306.175781 C 206.925781 305.960938 208.789062 305.703125 210.644531 305.394531 C 212.5 305.089844 214.347656 304.738281 216.1875 304.34375 C 218.027344 303.945312 219.855469 303.503906 221.671875 303.019531 C 221.378906 303.734375 221.097656 304.453125 220.832031 305.179688 C 218.996094 305.648438 217.144531 306.074219 215.285156 306.449219 C 213.425781 306.828125 211.558594 307.164062 209.679688 307.449219 C 207.804688 307.738281 205.921875 307.980469 204.035156 308.175781 C 202.148438 308.371094 200.253906 308.519531 198.359375 308.625 C 196.464844 308.726562 194.570312 308.785156 192.671875 308.796875 C 190.773438 308.808594 188.875 308.773438 186.980469 308.691406 C 185.082031 308.609375 183.191406 308.484375 181.300781 308.308594 C 179.410156 308.136719 177.523438 307.917969 175.644531 307.652344 C 173.765625 307.386719 171.894531 307.074219 170.03125 306.71875 C 168.164062 306.363281 166.3125 305.960938 164.464844 305.515625 C 162.621094 305.070312 160.789062 304.578125 158.96875 304.042969 C 157.148438 303.507812 155.339844 302.925781 153.546875 302.300781 C 151.753906 301.679688 149.980469 301.011719 148.21875 300.300781 C 146.460938 299.589844 144.71875 298.839844 142.992188 298.042969 C 141.269531 297.246094 139.566406 296.410156 137.886719 295.53125 C 136.203125 294.65625 134.542969 293.734375 132.902344 292.777344 C 131.265625 291.816406 129.652344 290.820312 128.0625 289.78125 C 126.472656 288.746094 124.910156 287.667969 123.375 286.554688 C 121.835938 285.441406 120.328125 284.292969 118.847656 283.105469 C 117.367188 281.917969 115.914062 280.695312 114.492188 279.4375 C 113.074219 278.179688 111.683594 276.886719 110.324219 275.5625 C 108.964844 274.234375 107.640625 272.878906 106.347656 271.488281 C 105.054688 270.097656 103.796875 268.675781 102.574219 267.226562 C 101.351562 265.773438 100.164062 264.292969 99.011719 262.785156 C 97.863281 261.277344 96.75 259.738281 95.671875 258.175781 C 94.597656 256.613281 93.558594 255.023438 92.558594 253.410156 C 91.5625 251.796875 90.601562 250.160156 89.683594 248.5 C 88.765625 246.839844 87.886719 245.15625 87.046875 243.453125 C 86.210938 241.75 85.417969 240.027344 84.664062 238.285156 C 83.910156 236.542969 83.199219 234.78125 82.53125 233.007812 C 81.863281 231.230469 81.238281 229.4375 80.660156 227.628906 C 80.078125 225.824219 79.542969 224.003906 79.050781 222.171875 C 78.90625 221.617188 78.761719 221.0625 78.621094 220.511719 Z M 80.40625 219.882812 " fill-opacity="1" fill-rule="evenodd"/></g><g clip-path="url(#b1f06938ae)"><g clip-path="url(#7733f97f62)"><g clip-path="url(#f9b2faa097)"><g clip-path="url(#5feafc32d4)"><g clip-path="url(#1e91d72ace)"><path fill="#ffffff" d="M 268.488281 267.746094 C 269.347656 269.042969 269.273438 270.992188 267.867188 271.921875 C 266.59375 272.761719 265.101562 272.640625 264.03125 271.65625 C 264.03125 271.65625 263.0625 272.371094 263.0625 272.371094 C 263.0625 272.371094 266.285156 276.730469 266.285156 276.730469 C 267.714844 278.65625 267.648438 281.089844 265.722656 282.503906 C 265.722656 282.503906 266.839844 284.015625 266.839844 284.015625 C 267.5625 285.09375 267.765625 286.394531 267.441406 287.550781 C 268.746094 289.464844 268.90625 291.953125 266.832031 293.488281 C 266.832031 293.488281 244.84375 309.75 244.84375 309.75 C 244.359375 310.109375 243.882812 310.476562 243.382812 310.808594 C 241.496094 312.070312 239.273438 311.238281 237.964844 309.644531 C 236.558594 309.785156 235.171875 309.21875 234.277344 308.007812 C 234.277344 308.007812 233.214844 306.570312 233.214844 306.570312 C 231.257812 308.046875 228.902344 307.148438 227.515625 305.273438 C 227.515625 305.273438 224.355469 301.003906 224.355469 301.003906 C 224.355469 301.003906 223.089844 301.9375 223.089844 301.9375 C 223.671875 303.207031 223.484375 304.851562 222.226562 305.679688 C 220.925781 306.539062 218.976562 306.464844 218.046875 305.054688 C 218.015625 305.007812 217.984375 304.960938 217.953125 304.910156 C 217.855469 304.804688 217.761719 304.6875 217.679688 304.558594 C 216.820312 303.261719 216.894531 301.308594 218.304688 300.378906 C 219.574219 299.542969 221.066406 299.664062 222.136719 300.648438 C 222.136719 300.648438 223.398438 299.710938 223.398438 299.710938 C 223.398438 299.710938 219.542969 294.496094 219.542969 294.496094 C 218.203125 292.6875 218.324219 290.246094 220.148438 288.90625 C 220.148438 288.90625 218.691406 286.9375 218.691406 286.9375 C 217.390625 285.179688 217.773438 282.617188 219.535156 281.316406 C 219.535156 281.316406 244.769531 262.652344 244.769531 262.652344 C 245.328125 262.238281 245.921875 261.710938 246.589844 261.503906 C 248.351562 260.945312 250.160156 261.464844 251.273438 262.972656 C 251.273438 262.972656 252.679688 264.871094 252.679688 264.871094 C 254.511719 263.515625 256.855469 263.980469 258.25 265.863281 C 258.25 265.863281 262.109375 271.082031 262.109375 271.082031 C 262.109375 271.082031 263.078125 270.363281 263.078125 270.363281 C 262.496094 269.097656 262.6875 267.453125 263.945312 266.621094 C 265.242188 265.765625 267.191406 265.835938 268.121094 267.25 C 268.15625 267.296875 268.183594 267.34375 268.214844 267.390625 C 268.3125 267.5 268.40625 267.617188 268.488281 267.746094 Z M 268.488281 267.746094 " fill-opacity="1" fill-rule="nonzero"/><path fill="#8c52ff" d="M 231.136719 285.414062 C 228.265625 287.414062 227.90625 291.460938 229.820312 294.210938 C 231.816406 297.082031 235.867188 297.4375 238.617188 295.527344 C 241.484375 293.527344 241.84375 289.480469 239.929688 286.734375 C 237.769531 283.980469 234.007812 283.414062 231.136719 285.414062 Z M 238.027344 294.730469 C 235.707031 296.554688 232.359375 295.84375 230.613281 293.625 C 228.789062 291.300781 229.503906 287.953125 231.722656 286.210938 C 234.042969 284.386719 237.390625 285.097656 239.136719 287.320312 C 240.824219 289.742188 240.347656 292.910156 238.027344 294.730469 Z M 249.949219 290.472656 C 249.285156 292.988281 247.261719 295.039062 244.496094 294.503906 C 243.871094 294.386719 243.726562 295.359375 244.351562 295.484375 C 247.6875 296.125 250.132812 293.628906 250.929688 290.617188 C 251.089844 290 250.109375 289.863281 249.949219 290.472656 Z M 246.054688 274.382812 C 243.183594 276.378906 242.828125 280.429688 244.738281 283.175781 C 246.734375 286.046875 250.785156 286.402344 253.53125 284.492188 C 256.40625 282.492188 256.761719 278.445312 254.851562 275.699219 C 252.6875 272.945312 248.929688 272.382812 246.054688 274.382812 Z M 252.945312 283.699219 C 250.625 285.519531 247.277344 284.808594 245.535156 282.589844 C 243.707031 280.265625 244.421875 276.917969 246.640625 275.175781 C 248.964844 273.351562 252.3125 274.0625 254.054688 276.285156 C 255.742188 278.707031 255.269531 281.875 252.945312 283.699219 Z M 246.054688 274.382812 C 243.183594 276.378906 242.828125 280.429688 244.738281 283.175781 C 246.734375 286.046875 250.785156 286.402344 253.53125 284.492188 C 256.40625 282.492188 256.761719 278.445312 254.851562 275.699219 C 252.6875 272.945312 248.929688 272.382812 246.054688 274.382812 Z M 252.945312 283.699219 C 250.625 285.519531 247.277344 284.808594 245.535156 282.589844 C 243.707031 280.265625 244.421875 276.917969 246.640625 275.175781 C 248.964844 273.351562 252.3125 274.0625 254.054688 276.285156 C 255.742188 278.707031 255.269531 281.875 252.945312 283.699219 Z M 249.949219 290.472656 C 249.285156 292.988281 247.261719 295.039062 244.496094 294.503906 C 243.871094 294.386719 243.726562 295.359375 244.351562 295.484375 C 247.6875 296.125 250.132812 293.628906 250.929688 290.617188 C 251.089844 290 250.109375 289.863281 249.949219 290.472656 Z M 231.136719 285.414062 C 228.265625 287.414062 227.90625 291.460938 229.820312 294.210938 C 231.816406 297.082031 235.867188 297.4375 238.617188 295.527344 C 241.484375 293.527344 241.84375 289.480469 239.929688 286.734375 C 237.769531 283.980469 234.007812 283.414062 231.136719 285.414062 Z M 238.027344 294.730469 C 235.707031 296.554688 232.359375 295.84375 230.613281 293.625 C 228.789062 291.300781 229.503906 287.953125 231.722656 286.210938 C 234.042969 284.386719 237.390625 285.097656 239.136719 287.320312 C 240.824219 289.742188 240.347656 292.910156 238.027344 294.730469 Z M 268.214844 267.390625 C 268.183594 267.34375 268.15625 267.296875 268.121094 267.25 C 267.191406 265.835938 265.242188 265.765625 263.945312 266.621094 C 262.6875 267.453125 262.496094 269.097656 263.078125 270.363281 C 263.078125 270.363281 262.109375 271.082031 262.109375 271.082031 C 262.109375 271.082031 258.25 265.863281 258.25 265.863281 C 256.855469 263.980469 254.511719 263.515625 252.679688 264.871094 C 252.679688 264.871094 251.273438 262.972656 251.273438 262.972656 C 250.160156 261.464844 248.351562 260.945312 246.585938 261.503906 C 245.921875 261.710938 245.328125 262.238281 244.769531 262.652344 C 244.769531 262.652344 219.535156 281.316406 219.535156 281.316406 C 217.773438 282.617188 217.390625 285.179688 218.691406 286.9375 C 218.691406 286.9375 220.148438 288.90625 220.148438 288.90625 C 218.324219 290.246094 218.203125 292.6875 219.542969 294.496094 C 219.542969 294.496094 223.398438 299.710938 223.398438 299.710938 C 223.398438 299.710938 222.136719 300.648438 222.136719 300.648438 C 221.066406 299.664062 219.574219 299.542969 218.304688 300.378906 C 216.894531 301.308594 216.820312 303.257812 217.679688 304.558594 C 217.761719 304.6875 217.855469 304.804688 217.953125 304.910156 C 217.984375 304.960938 218.011719 305.007812 218.046875 305.054688 C 218.976562 306.464844 220.925781 306.539062 222.226562 305.679688 C 223.484375 304.851562 223.671875 303.207031 223.089844 301.9375 C 223.089844 301.9375 224.355469 301.003906 224.355469 301.003906 C 224.355469 301.003906 227.515625 305.273438 227.515625 305.273438 C 228.902344 307.148438 231.257812 308.046875 233.214844 306.570312 C 233.214844 306.570312 234.277344 308.007812 234.277344 308.007812 C 235.171875 309.21875 236.558594 309.785156 237.964844 309.644531 C 239.269531 311.238281 241.496094 312.070312 243.382812 310.808594 C 243.882812 310.476562 244.359375 310.109375 244.84375 309.75 C 244.84375 309.75 266.832031 293.488281 266.832031 293.488281 C 268.90625 291.953125 268.746094 289.464844 267.441406 287.550781 C 267.765625 286.394531 267.5625 285.09375 266.839844 284.015625 C 266.839844 284.015625 265.722656 282.503906 265.722656 282.503906 C 267.648438 281.089844 267.714844 278.65625 266.285156 276.730469 C 266.285156 276.730469 263.0625 272.371094 263.0625 272.371094 C 263.0625 272.371094 264.03125 271.65625 264.03125 271.65625 C 265.101562 272.640625 266.59375 272.761719 267.867188 271.921875 C 269.273438 270.992188 269.347656 269.042969 268.488281 267.746094 C 268.40625 267.617188 268.3125 267.5 268.214844 267.390625 Z M 218.472656 303.972656 C 216.828125 301.980469 220.050781 299.613281 221.6875 301.59375 C 223.109375 303.746094 220.117188 305.960938 218.472656 303.972656 Z M 232.253906 305.269531 C 230.988281 306.144531 229.277344 306 228.296875 304.667969 C 228.296875 304.667969 220.140625 293.644531 220.140625 293.644531 C 219.167969 292.328125 219.546875 290.652344 220.742188 289.707031 C 220.742188 289.707031 232.253906 305.269531 232.253906 305.269531 Z M 220.496094 281.835938 C 220.496094 281.835938 244.234375 264.277344 244.234375 264.277344 C 245.957031 263.003906 248.152344 261.1875 250.035156 263.042969 C 250.035156 263.042969 219.191406 285.855469 219.191406 285.855469 C 218.457031 284.375 219.199219 282.792969 220.496094 281.835938 Z M 265.667969 292.347656 C 265.667969 292.347656 245.898438 306.972656 245.898438 306.972656 C 244.007812 308.371094 241.546875 311.007812 239.089844 309.3125 C 238.921875 309.199219 238.78125 309.058594 238.652344 308.910156 C 238.730469 308.878906 238.804688 308.855469 238.878906 308.820312 C 239.449219 308.582031 239.976562 308.113281 240.472656 307.746094 C 240.472656 307.746094 265.625 289.140625 265.625 289.140625 C 266.015625 288.851562 266.332031 288.511719 266.574219 288.136719 C 267.363281 289.621094 267.210938 291.210938 265.667969 292.347656 Z M 265.679688 284.109375 C 267.65625 287.0625 264.367188 288.84375 262.386719 290.308594 C 262.386719 290.308594 239.109375 307.523438 239.109375 307.523438 C 238.667969 307.851562 238.253906 308.050781 237.863281 308.15625 C 237.785156 308.15625 237.710938 308.171875 237.640625 308.207031 C 235.695312 308.539062 234.332031 306.417969 233.179688 304.863281 C 233.179688 304.863281 219.734375 286.683594 219.734375 286.683594 C 219.734375 286.683594 250.664062 263.808594 250.664062 263.808594 C 250.664062 263.808594 265.679688 284.109375 265.679688 284.109375 Z M 265.394531 277.183594 C 266.371094 278.507812 266.082031 280.292969 264.777344 281.226562 C 264.777344 281.226562 253.253906 265.644531 253.253906 265.644531 C 254.496094 264.703125 256.296875 264.886719 257.261719 266.1875 C 257.261719 266.1875 265.394531 277.183594 265.394531 277.183594 Z M 264.113281 270.214844 C 262.691406 268.058594 265.683594 265.847656 267.328125 267.835938 C 268.972656 269.828125 265.75 272.191406 264.113281 270.214844 Z M 253.53125 284.492188 C 256.40625 282.492188 256.761719 278.445312 254.851562 275.699219 C 252.6875 272.945312 248.929688 272.382812 246.054688 274.382812 C 243.183594 276.378906 242.828125 280.429688 244.738281 283.175781 C 246.734375 286.046875 250.785156 286.402344 253.53125 284.492188 Z M 246.640625 275.175781 C 248.964844 273.351562 252.3125 274.0625 254.054688 276.285156 C 255.742188 278.707031 255.269531 281.875 252.945312 283.699219 C 250.625 285.519531 247.277344 284.808594 245.535156 282.589844 C 243.707031 280.265625 244.421875 276.917969 246.640625 275.175781 Z M 244.496094 294.503906 C 243.871094 294.386719 243.726562 295.359375 244.351562 295.484375 C 247.6875 296.125 250.132812 293.628906 250.929688 290.617188 C 251.089844 290 250.109375 289.863281 249.949219 290.472656 C 249.285156 292.988281 247.261719 295.039062 244.496094 294.503906 Z M 238.617188 295.527344 C 241.484375 293.527344 241.84375 289.480469 239.929688 286.734375 C 237.769531 283.980469 234.007812 283.414062 231.136719 285.414062 C 228.265625 287.414062 227.90625 291.460938 229.820312 294.210938 C 231.816406 297.082031 235.867188 297.4375 238.617188 295.527344 Z M 231.722656 286.210938 C 234.042969 284.386719 237.390625 285.097656 239.136719 287.320312 C 240.824219 289.742188 240.347656 292.910156 238.027344 294.730469 C 235.707031 296.554688 232.359375 295.84375 230.613281 293.625 C 228.789062 291.300781 229.503906 287.953125 231.722656 286.210938 Z M 231.722656 286.210938 " fill-opacity="1" fill-rule="nonzero"/></g></g></g></g></g><g fill="#004aad" fill-opacity="1"><g transform="translate(60.86478, 197.759987)"><g><path d="M 10.078125 -8.859375 C 11.046875 -8.484375 11.8125 -7.941406 12.375 -7.234375 C 12.945312 -6.535156 13.234375 -5.722656 13.234375 -4.796875 C 13.234375 -3.710938 12.96875 -2.8125 12.4375 -2.09375 C 11.914062 -1.375 11.222656 -0.84375 10.359375 -0.5 C 9.503906 -0.164062 8.566406 0 7.546875 0 L 2.453125 0 L 2.453125 -17.09375 L 6.875 -17.09375 C 8.625 -17.09375 9.976562 -16.734375 10.9375 -16.015625 C 11.90625 -15.296875 12.390625 -14.222656 12.390625 -12.796875 C 12.390625 -11.890625 12.1875 -11.101562 11.78125 -10.4375 C 11.382812 -9.769531 10.816406 -9.242188 10.078125 -8.859375 Z M 4.75 -9.625 L 7.359375 -9.625 C 8.234375 -9.625 8.894531 -9.875 9.34375 -10.375 C 9.800781 -10.882812 10.03125 -11.53125 10.03125 -12.3125 C 10.03125 -13.175781 9.757812 -13.820312 9.21875 -14.25 C 8.6875 -14.675781 7.9375 -14.890625 6.96875 -14.890625 L 4.75 -14.890625 Z M 7.453125 -2.125 C 8.441406 -2.125 9.257812 -2.347656 9.90625 -2.796875 C 10.550781 -3.242188 10.875 -3.90625 10.875 -4.78125 C 10.875 -5.675781 10.519531 -6.335938 9.8125 -6.765625 C 9.113281 -7.191406 8.269531 -7.40625 7.28125 -7.40625 L 4.75 -7.40625 L 4.75 -2.125 Z M 7.453125 -2.125 "/></g></g></g><g fill="#f13aa8" fill-opacity="1"><g transform="translate(94.416777, 197.759987)"><g><path d="M 1.390625 -8.53125 C 1.390625 -10.09375 1.785156 -11.539062 2.578125 -12.875 C 3.367188 -14.21875 4.425781 -15.285156 5.75 -16.078125 C 7.082031 -16.878906 8.539062 -17.28125 10.125 -17.28125 C 11.675781 -17.28125 13.125 -16.878906 14.46875 -16.078125 C 15.8125 -15.285156 16.878906 -14.21875 17.671875 -12.875 C 18.460938 -11.539062 18.859375 -10.09375 18.859375 -8.53125 C 18.859375 -6.957031 18.460938 -5.5 17.671875 -4.15625 C 16.890625 -2.820312 15.820312 -1.765625 14.46875 -0.984375 C 13.125 -0.203125 11.675781 0.1875 10.125 0.1875 C 8.539062 0.1875 7.078125 -0.195312 5.734375 -0.96875 C 4.398438 -1.738281 3.34375 -2.789062 2.5625 -4.125 C 1.78125 -5.457031 1.390625 -6.925781 1.390625 -8.53125 Z M 3.765625 -8.515625 C 3.765625 -7.347656 4.046875 -6.265625 4.609375 -5.265625 C 5.179688 -4.273438 5.957031 -3.488281 6.9375 -2.90625 C 7.925781 -2.320312 9.003906 -2.03125 10.171875 -2.03125 C 11.335938 -2.03125 12.40625 -2.316406 13.375 -2.890625 C 14.34375 -3.472656 15.101562 -4.265625 15.65625 -5.265625 C 16.21875 -6.265625 16.5 -7.351562 16.5 -8.53125 C 16.5 -9.71875 16.210938 -10.8125 15.640625 -11.8125 C 15.078125 -12.820312 14.304688 -13.617188 13.328125 -14.203125 C 12.359375 -14.785156 11.289062 -15.078125 10.125 -15.078125 C 8.957031 -15.078125 7.882812 -14.78125 6.90625 -14.1875 C 5.925781 -13.601562 5.15625 -12.804688 4.59375 -11.796875 C 4.039062 -10.785156 3.765625 -9.691406 3.765625 -8.515625 Z M 3.765625 -8.515625 "/></g></g></g><g fill="#8c52ff" fill-opacity="1"><g transform="translate(133.596774, 197.759987)"><g><path d="M 1.390625 -8.53125 C 1.390625 -10.09375 1.785156 -11.539062 2.578125 -12.875 C 3.367188 -14.21875 4.425781 -15.285156 5.75 -16.078125 C 7.082031 -16.878906 8.539062 -17.28125 10.125 -17.28125 C 11.675781 -17.28125 13.125 -16.878906 14.46875 -16.078125 C 15.8125 -15.285156 16.878906 -14.21875 17.671875 -12.875 C 18.460938 -11.539062 18.859375 -10.09375 18.859375 -8.53125 C 18.859375 -6.957031 18.460938 -5.5 17.671875 -4.15625 C 16.890625 -2.820312 15.820312 -1.765625 14.46875 -0.984375 C 13.125 -0.203125 11.675781 0.1875 10.125 0.1875 C 8.539062 0.1875 7.078125 -0.195312 5.734375 -0.96875 C 4.398438 -1.738281 3.34375 -2.789062 2.5625 -4.125 C 1.78125 -5.457031 1.390625 -6.925781 1.390625 -8.53125 Z M 3.765625 -8.515625 C 3.765625 -7.347656 4.046875 -6.265625 4.609375 -5.265625 C 5.179688 -4.273438 5.957031 -3.488281 6.9375 -2.90625 C 7.925781 -2.320312 9.003906 -2.03125 10.171875 -2.03125 C 11.335938 -2.03125 12.40625 -2.316406 13.375 -2.890625 C 14.34375 -3.472656 15.101562 -4.265625 15.65625 -5.265625 C 16.21875 -6.265625 16.5 -7.351562 16.5 -8.53125 C 16.5 -9.71875 16.210938 -10.8125 15.640625 -11.8125 C 15.078125 -12.820312 14.304688 -13.617188 13.328125 -14.203125 C 12.359375 -14.785156 11.289062 -15.078125 10.125 -15.078125 C 8.957031 -15.078125 7.882812 -14.78125 6.90625 -14.1875 C 5.925781 -13.601562 5.15625 -12.804688 4.59375 -11.796875 C 4.039062 -10.785156 3.765625 -9.691406 3.765625 -8.515625 Z M 3.765625 -8.515625 "/></g></g></g><g fill="#004aad" fill-opacity="1"><g transform="translate(172.776771, 197.759987)"><g><path d="M 4.734375 -9.359375 L 5.015625 -9.8125 L 12.015625 -17.09375 L 14.96875 -17.09375 L 7.890625 -9.765625 L 15.359375 0 L 12.453125 0 L 6.21875 -8.296875 L 4.78125 -6.90625 L 4.796875 0 L 2.453125 0 L 2.453125 -17.09375 L 4.796875 -17.09375 L 4.796875 -10.21875 Z M 4.734375 -9.359375 "/></g></g></g><g fill="#f13aa8" fill-opacity="1"><g transform="translate(207.780768, 197.759987)"><g><path d="M 11.296875 -14.046875 C 10.679688 -14.367188 10.023438 -14.632812 9.328125 -14.84375 C 8.640625 -15.050781 7.988281 -15.15625 7.375 -15.15625 C 6.445312 -15.15625 5.707031 -14.945312 5.15625 -14.53125 C 4.613281 -14.113281 4.34375 -13.539062 4.34375 -12.8125 C 4.34375 -12.101562 4.660156 -11.523438 5.296875 -11.078125 C 5.941406 -10.628906 6.851562 -10.179688 8.03125 -9.734375 C 8.914062 -9.421875 9.660156 -9.078125 10.265625 -8.703125 C 10.878906 -8.335938 11.382812 -7.828125 11.78125 -7.171875 C 12.1875 -6.515625 12.390625 -5.6875 12.390625 -4.6875 C 12.390625 -3.769531 12.160156 -2.941406 11.703125 -2.203125 C 11.242188 -1.460938 10.59375 -0.878906 9.75 -0.453125 C 8.90625 -0.0234375 7.914062 0.1875 6.78125 0.1875 C 5.726562 0.1875 4.710938 0.0195312 3.734375 -0.3125 C 2.753906 -0.65625 1.894531 -1.085938 1.15625 -1.609375 L 2.171875 -3.421875 C 2.753906 -2.984375 3.457031 -2.609375 4.28125 -2.296875 C 5.101562 -1.992188 5.867188 -1.84375 6.578125 -1.84375 C 7.484375 -1.84375 8.28125 -2.078125 8.96875 -2.546875 C 9.65625 -3.023438 10 -3.726562 10 -4.65625 C 10 -5.445312 9.710938 -6.070312 9.140625 -6.53125 C 8.566406 -7 7.757812 -7.4375 6.71875 -7.84375 C 5.75 -8.207031 4.945312 -8.5625 4.3125 -8.90625 C 3.675781 -9.257812 3.128906 -9.738281 2.671875 -10.34375 C 2.210938 -10.945312 1.984375 -11.707031 1.984375 -12.625 C 1.984375 -13.96875 2.453125 -15.050781 3.390625 -15.875 C 4.328125 -16.695312 5.546875 -17.132812 7.046875 -17.1875 C 8.890625 -17.1875 10.597656 -16.726562 12.171875 -15.8125 Z M 11.296875 -14.046875 "/></g></g></g><g fill="#8c52ff" fill-opacity="1"><g transform="translate(240.468766, 197.759987)"><g><path d="M 12.546875 -17.09375 L 12.546875 -14.890625 L 7.96875 -14.890625 L 7.96875 0 L 5.671875 0 L 5.671875 -14.890625 L 1.203125 -14.890625 L 1.203125 -17.09375 Z M 12.546875 -17.09375 "/></g></g></g><g fill="#004aad" fill-opacity="1"><g transform="translate(273.156763, 197.759987)"><g><path d="M 13.5625 -17.09375 L 13.5625 -14.890625 L 4.75 -14.890625 L 4.75 -9.6875 L 12.625 -9.6875 L 12.625 -7.5 L 4.75 -7.5 L 4.75 -2.21875 L 13.90625 -2.21875 L 13.90625 0 L 2.453125 0 L 2.453125 -17.09375 Z M 13.5625 -17.09375 "/></g></g></g><g fill="#004aad" fill-opacity="1"><g transform="translate(307.512174, 197.759987)"><g><path d="M 11.875 0 L 7.84375 -6.3125 C 7.71875 -6.289062 7.53125 -6.28125 7.28125 -6.28125 L 4.75 -6.28125 L 4.75 0 L 2.453125 0 L 2.453125 -17.09375 L 7.015625 -17.09375 C 8.179688 -17.09375 9.222656 -16.882812 10.140625 -16.46875 C 11.054688 -16.0625 11.773438 -15.457031 12.296875 -14.65625 C 12.816406 -13.863281 13.078125 -12.910156 13.078125 -11.796875 C 13.078125 -10.742188 12.84375 -9.773438 12.375 -8.890625 C 11.90625 -8.003906 11.191406 -7.332031 10.234375 -6.875 L 14.53125 0 Z M 7.234375 -8.515625 C 8.460938 -8.515625 9.347656 -8.835938 9.890625 -9.484375 C 10.429688 -10.128906 10.703125 -10.867188 10.703125 -11.703125 C 10.703125 -12.203125 10.585938 -12.695312 10.359375 -13.1875 C 10.140625 -13.675781 9.78125 -14.082031 9.28125 -14.40625 C 8.78125 -14.726562 8.15625 -14.890625 7.40625 -14.890625 L 4.75 -14.890625 L 4.75 -8.515625 Z M 7.234375 -8.515625 "/></g></g></g><g fill="#000000" fill-opacity="1"><g transform="translate(118.671556, 236.870463)"><g><path d="M 5.625 0 L 3.765625 -2.859375 L 2.453125 -2.859375 L 2.453125 0 L 1.125 0 L 1.125 -8.21875 L 3.453125 -8.21875 C 4.367188 -8.21875 5.101562 -7.984375 5.65625 -7.515625 C 6.207031 -7.054688 6.484375 -6.410156 6.484375 -5.578125 C 6.484375 -5.078125 6.375 -4.609375 6.15625 -4.171875 C 5.945312 -3.742188 5.613281 -3.410156 5.15625 -3.171875 L 7.15625 0 Z M 2.453125 -4.125 L 3.625 -4.125 C 4.15625 -4.125 4.535156 -4.269531 4.765625 -4.5625 C 5.003906 -4.851562 5.125 -5.175781 5.125 -5.53125 C 5.125 -5.75 5.078125 -5.960938 4.984375 -6.171875 C 4.898438 -6.390625 4.75 -6.570312 4.53125 -6.71875 C 4.3125 -6.875 4.023438 -6.953125 3.671875 -6.953125 L 2.453125 -6.953125 Z M 2.453125 -4.125 "/></g></g></g><g fill="#000000" fill-opacity="1"><g transform="translate(130.758304, 236.870463)"><g><path d="M 0.625 -4.09375 C 0.625 -4.851562 0.8125 -5.550781 1.1875 -6.1875 C 1.5625 -6.832031 2.070312 -7.347656 2.71875 -7.734375 C 3.363281 -8.117188 4.066406 -8.3125 4.828125 -8.3125 C 5.578125 -8.3125 6.273438 -8.117188 6.921875 -7.734375 C 7.566406 -7.347656 8.078125 -6.832031 8.453125 -6.1875 C 8.835938 -5.539062 9.03125 -4.84375 9.03125 -4.09375 C 9.03125 -3.332031 8.835938 -2.632812 8.453125 -2 C 8.078125 -1.363281 7.566406 -0.851562 6.921875 -0.46875 C 6.273438 -0.09375 5.578125 0.09375 4.828125 0.09375 C 4.066406 0.09375 3.363281 -0.09375 2.71875 -0.46875 C 2.070312 -0.84375 1.5625 -1.347656 1.1875 -1.984375 C 0.8125 -2.628906 0.625 -3.332031 0.625 -4.09375 Z M 1.984375 -4.09375 C 1.984375 -3.5625 2.109375 -3.070312 2.359375 -2.625 C 2.617188 -2.1875 2.96875 -1.832031 3.40625 -1.5625 C 3.84375 -1.300781 4.328125 -1.171875 4.859375 -1.171875 C 5.378906 -1.171875 5.851562 -1.300781 6.28125 -1.5625 C 6.707031 -1.820312 7.046875 -2.175781 7.296875 -2.625 C 7.554688 -3.070312 7.6875 -3.5625 7.6875 -4.09375 C 7.6875 -4.632812 7.554688 -5.128906 7.296875 -5.578125 C 7.035156 -6.035156 6.6875 -6.394531 6.25 -6.65625 C 5.820312 -6.914062 5.347656 -7.046875 4.828125 -7.046875 C 4.296875 -7.046875 3.8125 -6.914062 3.375 -6.65625 C 2.945312 -6.394531 2.609375 -6.035156 2.359375 -5.578125 C 2.109375 -5.128906 1.984375 -4.632812 1.984375 -4.09375 Z M 1.984375 -4.09375 "/></g></g></g><g fill="#000000" fill-opacity="1"><g transform="translate(144.934822, 236.870463)"><g><path d="M 0.625 -4.09375 C 0.625 -4.851562 0.8125 -5.550781 1.1875 -6.1875 C 1.5625 -6.832031 2.070312 -7.347656 2.71875 -7.734375 C 3.363281 -8.117188 4.066406 -8.3125 4.828125 -8.3125 C 5.578125 -8.3125 6.273438 -8.117188 6.921875 -7.734375 C 7.566406 -7.347656 8.078125 -6.832031 8.453125 -6.1875 C 8.835938 -5.539062 9.03125 -4.84375 9.03125 -4.09375 C 9.03125 -3.332031 8.835938 -2.632812 8.453125 -2 C 8.078125 -1.363281 7.566406 -0.851562 6.921875 -0.46875 C 6.273438 -0.09375 5.578125 0.09375 4.828125 0.09375 C 4.066406 0.09375 3.363281 -0.09375 2.71875 -0.46875 C 2.070312 -0.84375 1.5625 -1.347656 1.1875 -1.984375 C 0.8125 -2.628906 0.625 -3.332031 0.625 -4.09375 Z M 1.984375 -4.09375 C 1.984375 -3.5625 2.109375 -3.070312 2.359375 -2.625 C 2.617188 -2.1875 2.96875 -1.832031 3.40625 -1.5625 C 3.84375 -1.300781 4.328125 -1.171875 4.859375 -1.171875 C 5.378906 -1.171875 5.851562 -1.300781 6.28125 -1.5625 C 6.707031 -1.820312 7.046875 -2.175781 7.296875 -2.625 C 7.554688 -3.070312 7.6875 -3.5625 7.6875 -4.09375 C 7.6875 -4.632812 7.554688 -5.128906 7.296875 -5.578125 C 7.035156 -6.035156 6.6875 -6.394531 6.25 -6.65625 C 5.820312 -6.914062 5.347656 -7.046875 4.828125 -7.046875 C 4.296875 -7.046875 3.8125 -6.914062 3.375 -6.65625 C 2.945312 -6.394531 2.609375 -6.035156 2.359375 -5.578125 C 2.109375 -5.128906 1.984375 -4.632812 1.984375 -4.09375 Z M 1.984375 -4.09375 "/></g></g></g><g fill="#000000" fill-opacity="1"><g transform="translate(159.111342, 236.870463)"><g><path d="M 9.4375 -8.515625 L 9.4375 0 L 8.125 0 L 8.125 -4.75 L 5.234375 -0.671875 L 5.21875 -0.671875 L 2.40625 -4.5625 L 2.40625 0 L 1.125 0 L 1.125 -8.515625 L 1.140625 -8.515625 L 5.234375 -2.71875 L 9.40625 -8.515625 Z M 9.4375 -8.515625 "/></g></g></g><g fill="#000000" fill-opacity="1"><g transform="translate(174.191544, 236.870463)"><g/></g></g><g fill="#000000" fill-opacity="1"><g transform="translate(182.324672, 236.870463)"><g><path d="M 5.03125 -4.296875 C 5.488281 -4.109375 5.847656 -3.847656 6.109375 -3.515625 C 6.367188 -3.179688 6.5 -2.796875 6.5 -2.359375 C 6.5 -1.554688 6.226562 -0.960938 5.6875 -0.578125 C 5.144531 -0.191406 4.476562 0 3.6875 0 L 1.125 0 L 1.125 -8.21875 L 3.375 -8.21875 C 4.238281 -8.21875 4.90625 -8.039062 5.375 -7.6875 C 5.851562 -7.34375 6.09375 -6.832031 6.09375 -6.15625 C 6.09375 -5.726562 6 -5.359375 5.8125 -5.046875 C 5.625 -4.734375 5.363281 -4.484375 5.03125 -4.296875 Z M 2.453125 -4.71875 L 3.59375 -4.71875 C 3.96875 -4.71875 4.25 -4.828125 4.4375 -5.046875 C 4.632812 -5.265625 4.734375 -5.539062 4.734375 -5.875 C 4.734375 -6.238281 4.617188 -6.507812 4.390625 -6.6875 C 4.160156 -6.863281 3.84375 -6.953125 3.4375 -6.953125 L 2.453125 -6.953125 Z M 3.640625 -1.21875 C 4.078125 -1.21875 4.4375 -1.3125 4.71875 -1.5 C 5 -1.695312 5.140625 -1.976562 5.140625 -2.34375 C 5.140625 -2.738281 4.984375 -3.019531 4.671875 -3.1875 C 4.367188 -3.363281 3.992188 -3.453125 3.546875 -3.453125 L 2.453125 -3.453125 L 2.453125 -1.21875 Z M 3.640625 -1.21875 "/></g></g></g><g fill="#000000" fill-opacity="1"><g transform="translate(193.959587, 236.870463)"><g><path d="M 0.625 -4.09375 C 0.625 -4.851562 0.8125 -5.550781 1.1875 -6.1875 C 1.5625 -6.832031 2.070312 -7.347656 2.71875 -7.734375 C 3.363281 -8.117188 4.066406 -8.3125 4.828125 -8.3125 C 5.578125 -8.3125 6.273438 -8.117188 6.921875 -7.734375 C 7.566406 -7.347656 8.078125 -6.832031 8.453125 -6.1875 C 8.835938 -5.539062 9.03125 -4.84375 9.03125 -4.09375 C 9.03125 -3.332031 8.835938 -2.632812 8.453125 -2 C 8.078125 -1.363281 7.566406 -0.851562 6.921875 -0.46875 C 6.273438 -0.09375 5.578125 0.09375 4.828125 0.09375 C 4.066406 0.09375 3.363281 -0.09375 2.71875 -0.46875 C 2.070312 -0.84375 1.5625 -1.347656 1.1875 -1.984375 C 0.8125 -2.628906 0.625 -3.332031 0.625 -4.09375 Z M 1.984375 -4.09375 C 1.984375 -3.5625 2.109375 -3.070312 2.359375 -2.625 C 2.617188 -2.1875 2.96875 -1.832031 3.40625 -1.5625 C 3.84375 -1.300781 4.328125 -1.171875 4.859375 -1.171875 C 5.378906 -1.171875 5.851562 -1.300781 6.28125 -1.5625 C 6.707031 -1.820312 7.046875 -2.175781 7.296875 -2.625 C 7.554688 -3.070312 7.6875 -3.5625 7.6875 -4.09375 C 7.6875 -4.632812 7.554688 -5.128906 7.296875 -5.578125 C 7.035156 -6.035156 6.6875 -6.394531 6.25 -6.65625 C 5.820312 -6.914062 5.347656 -7.046875 4.828125 -7.046875 C 4.296875 -7.046875 3.8125 -6.914062 3.375 -6.65625 C 2.945312 -6.394531 2.609375 -6.035156 2.359375 -5.578125 C 2.109375 -5.128906 1.984375 -4.632812 1.984375 -4.09375 Z M 1.984375 -4.09375 "/></g></g></g><g fill="#000000" fill-opacity="1"><g transform="translate(208.136108, 236.870463)"><g><path d="M 0.625 -4.09375 C 0.625 -4.851562 0.8125 -5.550781 1.1875 -6.1875 C 1.5625 -6.832031 2.070312 -7.347656 2.71875 -7.734375 C 3.363281 -8.117188 4.066406 -8.3125 4.828125 -8.3125 C 5.578125 -8.3125 6.273438 -8.117188 6.921875 -7.734375 C 7.566406 -7.347656 8.078125 -6.832031 8.453125 -6.1875 C 8.835938 -5.539062 9.03125 -4.84375 9.03125 -4.09375 C 9.03125 -3.332031 8.835938 -2.632812 8.453125 -2 C 8.078125 -1.363281 7.566406 -0.851562 6.921875 -0.46875 C 6.273438 -0.09375 5.578125 0.09375 4.828125 0.09375 C 4.066406 0.09375 3.363281 -0.09375 2.71875 -0.46875 C 2.070312 -0.84375 1.5625 -1.347656 1.1875 -1.984375 C 0.8125 -2.628906 0.625 -3.332031 0.625 -4.09375 Z M 1.984375 -4.09375 C 1.984375 -3.5625 2.109375 -3.070312 2.359375 -2.625 C 2.617188 -2.1875 2.96875 -1.832031 3.40625 -1.5625 C 3.84375 -1.300781 4.328125 -1.171875 4.859375 -1.171875 C 5.378906 -1.171875 5.851562 -1.300781 6.28125 -1.5625 C 6.707031 -1.820312 7.046875 -2.175781 7.296875 -2.625 C 7.554688 -3.070312 7.6875 -3.5625 7.6875 -4.09375 C 7.6875 -4.632812 7.554688 -5.128906 7.296875 -5.578125 C 7.035156 -6.035156 6.6875 -6.394531 6.25 -6.65625 C 5.820312 -6.914062 5.347656 -7.046875 4.828125 -7.046875 C 4.296875 -7.046875 3.8125 -6.914062 3.375 -6.65625 C 2.945312 -6.394531 2.609375 -6.035156 2.359375 -5.578125 C 2.109375 -5.128906 1.984375 -4.632812 1.984375 -4.09375 Z M 1.984375 -4.09375 "/></g></g></g><g fill="#000000" fill-opacity="1"><g transform="translate(222.312629, 236.870463)"><g><path d="M 2.421875 -4.65625 L 2.609375 -4.921875 L 5.703125 -8.21875 L 7.40625 -8.21875 L 4 -4.625 L 7.53125 0 L 5.859375 0 L 3.03125 -3.796875 L 2.46875 -3.234375 L 2.46875 0 L 1.125 0 L 1.125 -8.21875 L 2.46875 -8.21875 L 2.46875 -5.078125 Z M 2.421875 -4.65625 "/></g></g></g><g fill="#000000" fill-opacity="1"><g transform="translate(234.614, 236.870463)"><g><path d="M 2.453125 -8.21875 L 2.453125 0 L 1.125 0 L 1.125 -8.21875 Z M 2.453125 -8.21875 "/></g></g></g><g fill="#000000" fill-opacity="1"><g transform="translate(242.713248, 236.870463)"><g><path d="M 8.390625 -8.21875 L 8.390625 0.296875 L 8.359375 0.296875 L 2.421875 -5.453125 L 2.46875 0 L 1.125 0 L 1.125 -8.5 L 1.203125 -8.5 L 7.109375 -2.6875 L 7.078125 -8.21875 Z M 8.390625 -8.21875 "/></g></g></g><g fill="#000000" fill-opacity="1"><g transform="translate(256.76551, 236.870463)"><g><path d="M 7.671875 -0.75 C 7.441406 -0.539062 7.046875 -0.347656 6.484375 -0.171875 C 5.929688 0.00390625 5.421875 0.09375 4.953125 0.09375 C 4.085938 0.09375 3.328125 -0.078125 2.671875 -0.421875 C 2.015625 -0.773438 1.507812 -1.253906 1.15625 -1.859375 C 0.800781 -2.460938 0.625 -3.148438 0.625 -3.921875 C 0.625 -4.847656 0.8125 -5.640625 1.1875 -6.296875 C 1.570312 -6.960938 2.082031 -7.460938 2.71875 -7.796875 C 3.363281 -8.140625 4.070312 -8.3125 4.84375 -8.3125 C 5.320312 -8.3125 5.769531 -8.253906 6.1875 -8.140625 C 6.613281 -8.035156 6.992188 -7.894531 7.328125 -7.71875 L 6.890625 -6.5 C 6.660156 -6.632812 6.359375 -6.75 5.984375 -6.84375 C 5.617188 -6.945312 5.296875 -7 5.015625 -7 C 4.078125 -7 3.335938 -6.738281 2.796875 -6.21875 C 2.253906 -5.695312 1.984375 -4.96875 1.984375 -4.03125 C 1.984375 -3.476562 2.109375 -2.988281 2.359375 -2.5625 C 2.609375 -2.132812 2.957031 -1.800781 3.40625 -1.5625 C 3.863281 -1.332031 4.390625 -1.21875 4.984375 -1.21875 C 5.242188 -1.21875 5.492188 -1.238281 5.734375 -1.28125 C 5.972656 -1.332031 6.175781 -1.40625 6.34375 -1.5 L 6.34375 -2.875 L 4.796875 -2.875 L 4.796875 -4.140625 L 7.671875 -4.140625 Z M 7.671875 -0.75 "/></g></g></g><g fill="#000000" fill-opacity="1"><g transform="translate(269.828801, 236.870463)"><g/></g></g><g fill="#3d3b3a" fill-opacity="1"><g transform="translate(171.730194, 188.566823)"><g><path d="M 56.039062 -58.894531 C 55.417969 -59.144531 54.421875 -59.269531 51.566406 -59.515625 C 48.957031 -59.765625 29.695312 -60.511719 27.335938 -60.511719 L 23.855469 -60.636719 L 21.496094 -60.636719 C 21.867188 -61.132812 22.988281 -62.375 23.730469 -62.996094 C 24.230469 -63.367188 24.726562 -63.867188 25.222656 -64.488281 C 25.71875 -65.109375 27.460938 -66.722656 28.328125 -67.46875 L 29.570312 -68.460938 L 30.070312 -69.085938 C 30.441406 -69.457031 30.441406 -69.582031 30.191406 -69.953125 C 30.070312 -70.203125 29.820312 -70.328125 29.695312 -70.328125 C 29.449219 -70.328125 27.957031 -69.207031 27.832031 -68.835938 L 26.714844 -67.839844 C 25.347656 -66.722656 25.097656 -66.597656 24.851562 -66.226562 C 24.601562 -65.976562 21.371094 -62.871094 20.875 -62.5 L 20.5 -62.125 L 19.507812 -61.007812 L 19.011719 -60.511719 L 1.492188 -60.136719 L -1.242188 -59.890625 C -3.355469 -59.765625 -9.320312 -59.269531 -10.3125 -59.019531 C -11.308594 -58.769531 -11.804688 -58.273438 -11.429688 -57.902344 C -11.308594 -57.652344 -8.820312 -57.902344 -7.082031 -58.273438 C -6.710938 -58.398438 -3.726562 -58.769531 -0.746094 -58.894531 L 2.359375 -59.144531 L 5.714844 -59.269531 L 9.816406 -59.515625 C 10.933594 -59.640625 15.160156 -59.640625 17.890625 -59.640625 C 17.769531 -59.390625 17.519531 -59.269531 17.394531 -59.019531 L 17.023438 -58.769531 L 16.648438 -58.273438 L 15.160156 -56.660156 C 13.417969 -54.796875 7.953125 -48.832031 6.832031 -47.214844 C 6.832031 -47.214844 4.847656 -44.855469 4.847656 -44.980469 C 4.847656 -44.855469 4.347656 -44.359375 3.851562 -43.859375 C 3.230469 -43.238281 2.238281 -42.121094 -0.371094 -39.015625 L -1.367188 -37.898438 L -2.359375 -36.65625 C -2.609375 -36.28125 -2.734375 -36.03125 -2.859375 -36.03125 C -3.105469 -36.03125 -3.726562 -35.289062 -5.714844 -32.679688 C -6.460938 -31.808594 -7.082031 -31.0625 -7.332031 -30.9375 C -7.457031 -30.691406 -8.699219 -29.199219 -10.0625 -27.582031 L -13.171875 -23.730469 L -18.265625 -16.898438 C -19.507812 -15.160156 -20.253906 -14.164062 -20.5 -14.289062 L -20.5 -14.039062 C -20.5 -13.917969 -20.5 -13.667969 -20.625 -13.417969 C -20.75 -13.046875 -20.875 -12.921875 -21 -13.046875 C -21 -12.921875 -21.121094 -12.796875 -21.121094 -12.796875 C -21.121094 -12.550781 -21.121094 -12.425781 -21.246094 -12.425781 C -21.246094 -12.550781 -21.621094 -11.804688 -21.867188 -10.933594 C -22.367188 -9.691406 -22.488281 -9.195312 -22.367188 -8.574219 C -22.117188 -7.828125 -21.992188 -7.703125 -21.621094 -7.578125 C -21.121094 -7.578125 -20.875 -7.578125 -20.75 -7.828125 C -20.5 -8.199219 -20.5 -8.199219 -21 -8.324219 C -21.496094 -8.324219 -21.496094 -8.449219 -21.496094 -8.945312 C -21.371094 -9.566406 -20.378906 -11.679688 -19.507812 -13.046875 C -17.148438 -16.527344 -10.933594 -24.476562 -6.957031 -29.074219 L -4.96875 -31.4375 L -0.871094 -36.15625 L 2.484375 -39.886719 L 3.601562 -41.25 L 5.09375 -42.867188 C 6.210938 -44.109375 7.207031 -45.351562 9.320312 -47.835938 C 10.0625 -48.707031 10.933594 -49.578125 11.308594 -49.949219 C 11.679688 -50.320312 12.300781 -51.066406 12.671875 -51.566406 L 14.785156 -53.800781 C 16.152344 -55.292969 17.023438 -56.039062 17.769531 -57.03125 L 18.886719 -58.148438 C 19.257812 -58.648438 19.632812 -58.894531 19.878906 -59.269531 L 20.5 -59.640625 C 21.496094 -59.765625 22.242188 -59.640625 22.613281 -59.640625 L 23.109375 -59.640625 C 30.316406 -59.515625 47.589844 -59.019531 50.074219 -58.648438 C 50.820312 -58.398438 52.0625 -58.398438 52.683594 -58.273438 C 53.925781 -58.273438 53.925781 -58.273438 53.675781 -57.777344 C 53.429688 -57.527344 53.550781 -57.28125 53.675781 -57.15625 C 53.925781 -56.90625 54.050781 -56.78125 54.175781 -56.90625 L 55.417969 -57.40625 C 56.78125 -58.027344 56.90625 -58.398438 56.039062 -58.894531 Z M 56.039062 -58.894531 "/></g></g></g><g fill="#3d3b3a" fill-opacity="1"><g transform="translate(184.403763, 188.566823)"><g><path d="M 44.730469 -68.339844 C 44.480469 -68.710938 43.238281 -68.710938 41.996094 -68.460938 L 40.628906 -68.214844 C 39.886719 -68.089844 38.640625 -67.71875 38.144531 -67.46875 L 37.152344 -67.21875 C 34.542969 -66.476562 31.0625 -64.984375 28.453125 -63.492188 L 27.085938 -62.746094 L 25.96875 -62 L 23.855469 -60.636719 C 22.367188 -59.640625 20.625 -58.398438 20.5 -58.273438 L 16.527344 -55.167969 L 13.917969 -52.929688 L 9.691406 -49.203125 C 9.070312 -48.582031 8.324219 -47.835938 7.953125 -47.589844 L 6.832031 -47.214844 C 6.210938 -46.96875 5.714844 -46.84375 5.714844 -46.71875 C 5.714844 -46.71875 5.589844 -46.59375 5.46875 -46.59375 C 5.34375 -46.59375 4.96875 -46.46875 4.472656 -46.222656 C 4.101562 -46.097656 3.851562 -45.972656 3.726562 -45.847656 L 2.484375 -45.351562 L -1.367188 -43.984375 C -1.738281 -43.859375 -2.238281 -43.613281 -2.359375 -43.488281 C -2.609375 -42.992188 -2.484375 -42.742188 -1.988281 -42.742188 C -1.738281 -42.742188 -1.242188 -42.867188 -0.746094 -42.992188 L 0.496094 -43.613281 C 0.871094 -43.859375 1.367188 -43.984375 1.863281 -44.109375 L 4.101562 -44.855469 C 4.222656 -44.980469 4.472656 -44.980469 4.722656 -45.101562 C 4.722656 -45.226562 5.589844 -45.476562 5.714844 -45.351562 C 5.714844 -45.351562 4.847656 -44.359375 3.601562 -43.238281 L -0.746094 -38.640625 L -1.242188 -38.144531 L -2.359375 -36.777344 L -3.480469 -35.535156 C -3.851562 -35.164062 -4.347656 -34.667969 -4.347656 -34.167969 C -4.347656 -33.796875 -3.851562 -33.546875 -3.601562 -33.421875 C -3.230469 -33.300781 -3.105469 -33.421875 -2.980469 -33.546875 L -2.609375 -33.796875 L -1.988281 -34.292969 L -1.617188 -34.667969 L -1.242188 -34.914062 L -0.992188 -35.039062 L 0.496094 -36.53125 L 1.242188 -36.902344 L 1.367188 -36.902344 L 2.113281 -37.398438 C 2.359375 -37.648438 2.980469 -37.898438 3.480469 -38.019531 L 4.847656 -38.519531 C 5.21875 -38.640625 5.46875 -38.765625 5.46875 -38.640625 C 5.46875 -38.519531 5.46875 -38.519531 5.34375 -38.519531 C 5.21875 -38.519531 4.347656 -37.398438 3.976562 -36.65625 L 3.601562 -35.910156 C 3.105469 -34.789062 3.105469 -34.292969 3.726562 -33.796875 C 4.101562 -33.546875 4.347656 -33.421875 4.722656 -33.546875 L 4.96875 -33.671875 C 5.964844 -33.796875 9.320312 -35.289062 9.816406 -35.535156 C 10.5625 -35.785156 10.3125 -35.910156 12.050781 -36.65625 C 12.300781 -36.65625 12.796875 -37.152344 13.417969 -37.398438 C 16.027344 -38.640625 13.792969 -37.773438 16.152344 -38.640625 C 17.269531 -39.386719 16.402344 -39.386719 15.902344 -39.386719 L 12.796875 -38.019531 C 11.183594 -37.277344 6.832031 -35.410156 5.589844 -34.914062 L 5.09375 -34.789062 L 4.847656 -34.789062 C 4.722656 -34.789062 4.847656 -35.289062 5.21875 -36.03125 L 5.34375 -36.40625 C 5.589844 -36.902344 6.335938 -37.773438 7.457031 -38.890625 C 7.953125 -39.511719 8.078125 -39.636719 7.953125 -39.886719 C 7.703125 -40.257812 7.207031 -40.257812 5.589844 -39.761719 C 3.601562 -39.015625 2.484375 -38.640625 1.492188 -38.144531 C 1.367188 -38.144531 1.367188 -38.019531 1.242188 -38.019531 C 0.992188 -37.898438 0.746094 -37.773438 0.621094 -37.898438 L 0.621094 -38.144531 C 0.992188 -38.765625 4.347656 -42.121094 6.710938 -44.480469 L 8.820312 -46.59375 L 9.441406 -46.96875 L 14.164062 -49.078125 C 15.78125 -49.824219 16.773438 -50.199219 17.023438 -50.320312 L 19.136719 -51.191406 C 20.128906 -51.6875 21.121094 -52.0625 21.246094 -52.0625 C 21.496094 -52.0625 22.117188 -52.308594 22.613281 -52.558594 C 25.222656 -53.800781 30.9375 -56.410156 32.304688 -57.28125 L 33.050781 -57.527344 C 33.421875 -57.652344 33.671875 -57.902344 33.671875 -58.027344 C 33.796875 -58.148438 34.046875 -58.273438 34.292969 -58.398438 C 34.542969 -58.398438 35.039062 -58.648438 35.410156 -58.894531 L 37.277344 -60.015625 C 37.898438 -60.511719 39.140625 -61.257812 39.886719 -61.878906 L 41.75 -63.246094 C 42.371094 -63.617188 43.984375 -65.230469 44.480469 -66.101562 C 45.101562 -66.972656 45.101562 -67.839844 44.730469 -68.339844 Z M 43.488281 -66.476562 L 42.742188 -65.605469 C 42.496094 -65.230469 42.121094 -64.734375 41.996094 -64.734375 L 40.753906 -63.742188 C 40.007812 -62.996094 38.144531 -61.753906 36.53125 -60.757812 L 32.304688 -58.398438 L 30.816406 -57.652344 L 29.449219 -56.90625 L 27.085938 -55.789062 C 26.339844 -55.292969 25.472656 -54.917969 25.097656 -54.796875 L 23.359375 -54.175781 L 20.875 -53.054688 L 18.140625 -51.9375 C 17.519531 -51.6875 16.898438 -51.441406 16.773438 -51.441406 C 16.648438 -51.441406 16.152344 -51.191406 15.53125 -50.941406 C 15.035156 -50.695312 14.414062 -50.445312 14.289062 -50.445312 C 14.164062 -50.445312 13.542969 -50.074219 12.796875 -49.699219 C 11.929688 -49.328125 11.554688 -49.203125 11.554688 -49.328125 C 11.554688 -49.453125 11.554688 -49.699219 11.679688 -49.699219 L 13.171875 -50.941406 C 15.65625 -53.179688 20.253906 -57.03125 20.5 -57.03125 L 21.496094 -57.777344 C 23.359375 -59.269531 27.335938 -61.878906 30.441406 -63.492188 C 32.800781 -64.609375 36.03125 -65.855469 38.269531 -66.476562 L 40.257812 -67.097656 C 40.628906 -67.21875 42.742188 -67.46875 43.117188 -67.34375 C 43.363281 -67.21875 43.488281 -67.097656 43.613281 -66.847656 C 43.613281 -66.722656 43.488281 -66.476562 43.488281 -66.476562 Z M 43.488281 -66.476562 "/></g></g></g><g fill="#3d3b3a" fill-opacity="1"><g transform="translate(202.295835, 188.566823)"><g><path d="M -1.242188 -33.921875 C 0.125 -34.167969 0.992188 -34.417969 3.230469 -35.535156 L 8.820312 -38.019531 L 10.4375 -38.765625 C 10.5625 -38.890625 10.5625 -39.261719 10.3125 -39.386719 L 10.1875 -39.511719 L 9.816406 -39.511719 L 9.566406 -39.386719 C 2.734375 -36.40625 -1.367188 -34.914062 -2.113281 -35.164062 C -2.359375 -35.289062 -2.359375 -35.410156 -1.988281 -35.785156 C -1.738281 -36.28125 -1.492188 -36.40625 -0.621094 -36.65625 C 0.746094 -37.027344 1.988281 -37.648438 4.101562 -39.140625 C 6.089844 -40.507812 6.957031 -41.25 6.832031 -41.625 C 6.585938 -42.371094 5.46875 -42.246094 3.480469 -41.5 C 0.992188 -40.628906 -1.863281 -38.394531 -3.105469 -36.40625 C -3.726562 -35.410156 -3.851562 -35.039062 -3.601562 -34.542969 C -3.480469 -33.671875 -3.230469 -33.671875 -1.242188 -33.921875 Z M -0.25 -38.019531 C -0.125 -38.394531 1.988281 -39.886719 2.859375 -40.132812 C 3.601562 -40.507812 4.847656 -41.003906 4.847656 -40.753906 C 4.722656 -40.628906 2.859375 -39.386719 1.738281 -38.765625 C 0.371094 -38.019531 -0.496094 -37.773438 -0.25 -38.019531 Z M -0.25 -38.019531 "/></g></g></g><g fill="#000000" fill-opacity="1"><g transform="translate(160.509736, 260.397879)"><g><path d="M 4.375 -5.453125 L 4.375 -4.625 L 1.625 -4.625 L 1.625 -3.171875 L 4.078125 -3.171875 L 4.078125 -2.328125 L 1.625 -2.328125 L 1.625 -0.84375 L 4.484375 -0.84375 L 4.484375 0 L 0.75 0 L 0.75 -5.453125 Z M 4.375 -5.453125 "/></g></g></g><g fill="#000000" fill-opacity="1"><g transform="translate(168.446518, 260.397879)"><g><path d="M 3.609375 -4.34375 C 3.140625 -4.59375 2.722656 -4.71875 2.359375 -4.71875 C 2.085938 -4.71875 1.875 -4.65625 1.71875 -4.53125 C 1.5625 -4.414062 1.484375 -4.253906 1.484375 -4.046875 C 1.484375 -3.835938 1.582031 -3.664062 1.78125 -3.53125 C 1.976562 -3.394531 2.253906 -3.257812 2.609375 -3.125 C 2.878906 -3.03125 3.109375 -2.921875 3.296875 -2.796875 C 3.492188 -2.671875 3.65625 -2.503906 3.78125 -2.296875 C 3.90625 -2.085938 3.96875 -1.820312 3.96875 -1.5 C 3.96875 -1.207031 3.894531 -0.941406 3.75 -0.703125 C 3.601562 -0.472656 3.390625 -0.285156 3.109375 -0.140625 C 2.835938 -0.00390625 2.515625 0.0625 2.140625 0.0625 C 1.816406 0.0625 1.492188 0.0078125 1.171875 -0.09375 C 0.847656 -0.195312 0.5625 -0.335938 0.3125 -0.515625 L 0.703125 -1.203125 C 0.890625 -1.054688 1.109375 -0.9375 1.359375 -0.84375 C 1.609375 -0.757812 1.84375 -0.71875 2.0625 -0.71875 C 2.320312 -0.71875 2.550781 -0.78125 2.75 -0.90625 C 2.957031 -1.03125 3.0625 -1.226562 3.0625 -1.5 C 3.0625 -1.707031 2.976562 -1.878906 2.8125 -2.015625 C 2.644531 -2.160156 2.410156 -2.289062 2.109375 -2.40625 C 1.796875 -2.519531 1.535156 -2.628906 1.328125 -2.734375 C 1.128906 -2.847656 0.953125 -3.003906 0.796875 -3.203125 C 0.648438 -3.410156 0.578125 -3.664062 0.578125 -3.96875 C 0.578125 -4.414062 0.726562 -4.773438 1.03125 -5.046875 C 1.34375 -5.316406 1.742188 -5.460938 2.234375 -5.484375 C 2.597656 -5.484375 2.914062 -5.441406 3.1875 -5.359375 C 3.457031 -5.285156 3.707031 -5.171875 3.9375 -5.015625 Z M 3.609375 -4.34375 "/></g></g></g><g fill="#000000" fill-opacity="1"><g transform="translate(175.813173, 260.397879)"><g><path d="M 4.015625 -5.453125 L 4.015625 -4.625 L 2.609375 -4.625 L 2.609375 0 L 1.734375 0 L 1.734375 -4.625 L 0.359375 -4.625 L 0.359375 -5.453125 Z M 4.015625 -5.453125 "/></g></g></g><g fill="#000000" fill-opacity="1"><g transform="translate(183.187326, 260.397879)"><g><path d="M 0.75 -5.453125 L 2.296875 -5.453125 C 2.984375 -5.453125 3.550781 -5.316406 4 -5.046875 C 4.445312 -4.785156 4.769531 -4.441406 4.96875 -4.015625 C 5.175781 -3.585938 5.28125 -3.132812 5.28125 -2.65625 C 5.28125 -2.125 5.15625 -1.65625 4.90625 -1.25 C 4.664062 -0.851562 4.335938 -0.546875 3.921875 -0.328125 C 3.503906 -0.109375 3.050781 0 2.5625 0 L 0.75 0 Z M 2.40625 -0.84375 C 2.800781 -0.84375 3.144531 -0.914062 3.4375 -1.0625 C 3.738281 -1.207031 3.972656 -1.421875 4.140625 -1.703125 C 4.304688 -1.984375 4.390625 -2.320312 4.390625 -2.71875 C 4.390625 -3.144531 4.296875 -3.5 4.109375 -3.78125 C 3.929688 -4.070312 3.703125 -4.285156 3.421875 -4.421875 C 3.140625 -4.554688 2.847656 -4.625 2.546875 -4.625 L 1.625 -4.625 L 1.625 -0.84375 Z M 2.40625 -0.84375 "/></g></g></g><g fill="#000000" fill-opacity="1"><g transform="translate(191.896782, 260.397879)"><g/></g></g><g fill="#000000" fill-opacity="1"><g transform="translate(197.297986, 260.397879)"><g><path d="M 3.859375 -0.84375 L 3.859375 0 L 0.40625 0 L 0.671875 -0.265625 C 1.171875 -0.765625 1.5625 -1.171875 1.84375 -1.484375 C 2.125 -1.796875 2.359375 -2.109375 2.546875 -2.421875 C 2.734375 -2.742188 2.828125 -3.046875 2.828125 -3.328125 C 2.828125 -3.597656 2.742188 -3.804688 2.578125 -3.953125 C 2.410156 -4.097656 2.207031 -4.171875 1.96875 -4.171875 C 1.695312 -4.171875 1.488281 -4.09375 1.34375 -3.9375 C 1.195312 -3.789062 1.125 -3.625 1.125 -3.4375 C 1.125 -3.132812 1.222656 -2.878906 1.421875 -2.671875 L 0.890625 -2.1875 C 0.710938 -2.28125 0.566406 -2.457031 0.453125 -2.71875 C 0.335938 -2.976562 0.28125 -3.210938 0.28125 -3.421875 C 0.28125 -3.691406 0.351562 -3.945312 0.5 -4.1875 C 0.644531 -4.4375 0.851562 -4.632812 1.125 -4.78125 C 1.40625 -4.9375 1.734375 -5.015625 2.109375 -5.015625 C 2.429688 -5.015625 2.710938 -4.9375 2.953125 -4.78125 C 3.203125 -4.632812 3.394531 -4.4375 3.53125 -4.1875 C 3.664062 -3.945312 3.734375 -3.6875 3.734375 -3.40625 C 3.734375 -3.125 3.664062 -2.84375 3.53125 -2.5625 C 3.40625 -2.28125 3.25 -2.019531 3.0625 -1.78125 C 2.882812 -1.539062 2.628906 -1.226562 2.296875 -0.84375 Z M 3.859375 -0.84375 "/></g></g></g><g fill="#000000" fill-opacity="1"><g transform="translate(204.499602, 260.397879)"><g><path d="M 2.34375 0.015625 C 1.945312 0.015625 1.585938 -0.078125 1.265625 -0.265625 C 0.953125 -0.460938 0.707031 -0.75 0.53125 -1.125 C 0.351562 -1.507812 0.265625 -1.96875 0.265625 -2.5 C 0.265625 -3.34375 0.445312 -3.972656 0.8125 -4.390625 C 1.1875 -4.804688 1.695312 -5.007812 2.34375 -5 C 2.75 -5.007812 3.109375 -4.914062 3.421875 -4.71875 C 3.734375 -4.519531 3.976562 -4.226562 4.15625 -3.84375 C 4.332031 -3.46875 4.421875 -3.019531 4.421875 -2.5 C 4.421875 -1.957031 4.332031 -1.5 4.15625 -1.125 C 3.976562 -0.75 3.734375 -0.460938 3.421875 -0.265625 C 3.109375 -0.078125 2.75 0.015625 2.34375 0.015625 Z M 2.34375 -0.8125 C 2.738281 -0.8125 3.03125 -0.960938 3.21875 -1.265625 C 3.414062 -1.578125 3.515625 -1.992188 3.515625 -2.515625 C 3.515625 -3.023438 3.414062 -3.425781 3.21875 -3.71875 C 3.03125 -4.019531 2.738281 -4.164062 2.34375 -4.15625 C 1.945312 -4.164062 1.648438 -4.019531 1.453125 -3.71875 C 1.265625 -3.414062 1.171875 -3.007812 1.171875 -2.5 C 1.171875 -1.988281 1.265625 -1.578125 1.453125 -1.265625 C 1.648438 -0.960938 1.945312 -0.8125 2.34375 -0.8125 Z M 2.34375 -0.8125 "/></g></g></g><g fill="#000000" fill-opacity="1"><g transform="translate(212.188824, 260.397879)"><g><path d="M 3.859375 -0.84375 L 3.859375 0 L 0.40625 0 L 0.671875 -0.265625 C 1.171875 -0.765625 1.5625 -1.171875 1.84375 -1.484375 C 2.125 -1.796875 2.359375 -2.109375 2.546875 -2.421875 C 2.734375 -2.742188 2.828125 -3.046875 2.828125 -3.328125 C 2.828125 -3.597656 2.742188 -3.804688 2.578125 -3.953125 C 2.410156 -4.097656 2.207031 -4.171875 1.96875 -4.171875 C 1.695312 -4.171875 1.488281 -4.09375 1.34375 -3.9375 C 1.195312 -3.789062 1.125 -3.625 1.125 -3.4375 C 1.125 -3.132812 1.222656 -2.878906 1.421875 -2.671875 L 0.890625 -2.1875 C 0.710938 -2.28125 0.566406 -2.457031 0.453125 -2.71875 C 0.335938 -2.976562 0.28125 -3.210938 0.28125 -3.421875 C 0.28125 -3.691406 0.351562 -3.945312 0.5 -4.1875 C 0.644531 -4.4375 0.851562 -4.632812 1.125 -4.78125 C 1.40625 -4.9375 1.734375 -5.015625 2.109375 -5.015625 C 2.429688 -5.015625 2.710938 -4.9375 2.953125 -4.78125 C 3.203125 -4.632812 3.394531 -4.4375 3.53125 -4.1875 C 3.664062 -3.945312 3.734375 -3.6875 3.734375 -3.40625 C 3.734375 -3.125 3.664062 -2.84375 3.53125 -2.5625 C 3.40625 -2.28125 3.25 -2.019531 3.0625 -1.78125 C 2.882812 -1.539062 2.628906 -1.226562 2.296875 -0.84375 Z M 3.859375 -0.84375 "/></g></g></g><g fill="#000000" fill-opacity="1"><g transform="translate(219.39044, 260.397879)"><g><path d="M 3.796875 -1.8125 L 3.796875 -1.140625 L 3.171875 -1.140625 L 3.171875 0 L 2.296875 0 L 2.296875 -1.140625 L 0.09375 -1.140625 L 0.09375 -1.15625 L 3.171875 -5.015625 L 3.171875 -1.8125 Z M 2.296875 -1.8125 L 2.296875 -3 L 1.375 -1.8125 Z M 2.296875 -1.8125 "/></g></g></g><g clip-path="url(#9d5401a206)"><g clip-path="url(#43631a40f4)"><g clip-path="url(#df5f37fdcd)"><g clip-path="url(#9d24fc0d70)"><g clip-path="url(#e03fe6cb6c)"><path fill="#ffffff" d="M 164.988281 80.371094 C 165.847656 81.667969 165.773438 83.617188 164.367188 84.550781 C 163.09375 85.386719 161.601562 85.265625 160.53125 84.28125 C 160.53125 84.28125 159.5625 84.996094 159.5625 84.996094 C 159.5625 84.996094 162.785156 89.355469 162.785156 89.355469 C 164.214844 91.285156 164.148438 93.714844 162.222656 95.132812 C 162.222656 95.132812 163.339844 96.640625 163.339844 96.640625 C 164.058594 97.71875 164.265625 99.019531 163.941406 100.175781 C 165.246094 102.089844 165.40625 104.578125 163.332031 106.113281 C 163.332031 106.113281 141.339844 122.375 141.339844 122.375 C 140.859375 122.734375 140.382812 123.101562 139.882812 123.433594 C 137.996094 124.695312 135.769531 123.863281 134.464844 122.269531 C 133.058594 122.410156 131.671875 121.84375 130.777344 120.632812 C 130.777344 120.632812 129.714844 119.195312 129.714844 119.195312 C 127.757812 120.671875 125.402344 119.777344 124.015625 117.902344 C 124.015625 117.902344 120.855469 113.628906 120.855469 113.628906 C 120.855469 113.628906 119.589844 114.566406 119.589844 114.566406 C 120.171875 115.832031 119.980469 117.476562 118.726562 118.308594 C 117.425781 119.164062 115.476562 119.09375 114.546875 117.679688 C 114.511719 117.632812 114.484375 117.585938 114.453125 117.535156 C 114.355469 117.429688 114.261719 117.3125 114.179688 117.183594 C 113.320312 115.886719 113.394531 113.9375 114.804688 113.003906 C 116.074219 112.167969 117.566406 112.289062 118.636719 113.273438 C 118.636719 113.273438 119.898438 112.339844 119.898438 112.339844 C 119.898438 112.339844 116.039062 107.121094 116.039062 107.121094 C 114.703125 105.3125 114.824219 102.871094 116.648438 101.53125 C 116.648438 101.53125 115.191406 99.5625 115.191406 99.5625 C 113.890625 97.804688 114.273438 95.242188 116.035156 93.941406 C 116.035156 93.941406 141.265625 75.277344 141.265625 75.277344 C 141.828125 74.863281 142.421875 74.339844 143.085938 74.128906 C 144.851562 73.570312 146.660156 74.089844 147.773438 75.597656 C 147.773438 75.597656 149.179688 77.496094 149.179688 77.496094 C 151.007812 76.140625 153.355469 76.605469 154.75 78.488281 C 154.75 78.488281 158.609375 83.707031 158.609375 83.707031 C 158.609375 83.707031 159.578125 82.988281 159.578125 82.988281 C 158.996094 81.722656 159.183594 80.078125 160.445312 79.246094 C 161.742188 78.390625 163.691406 78.460938 164.621094 79.875 C 164.65625 79.921875 164.683594 79.96875 164.714844 80.019531 C 164.8125 80.125 164.90625 80.242188 164.988281 80.371094 Z M 164.988281 80.371094 " fill-opacity="1" fill-rule="nonzero"/><path fill="#004aad" d="M 127.636719 98.039062 C 124.765625 100.039062 124.40625 104.089844 126.320312 106.835938 C 128.316406 109.707031 132.367188 110.0625 135.113281 108.152344 C 137.984375 106.152344 138.34375 102.105469 136.429688 99.359375 C 134.269531 96.605469 130.507812 96.042969 127.636719 98.039062 Z M 134.527344 107.355469 C 132.207031 109.179688 128.859375 108.46875 127.113281 106.25 C 125.289062 103.925781 126.003906 100.578125 128.222656 98.835938 C 130.542969 97.011719 133.890625 97.722656 135.636719 99.945312 C 137.324219 102.367188 136.847656 105.535156 134.527344 107.355469 Z M 146.449219 103.097656 C 145.785156 105.613281 143.761719 107.664062 140.996094 107.128906 C 140.371094 107.011719 140.226562 107.988281 140.851562 108.109375 C 144.1875 108.75 146.632812 106.253906 147.429688 103.242188 C 147.589844 102.625 146.609375 102.488281 146.449219 103.097656 Z M 142.554688 87.007812 C 139.683594 89.003906 139.324219 93.054688 141.238281 95.800781 C 143.234375 98.671875 147.285156 99.027344 150.03125 97.117188 C 152.90625 95.121094 153.261719 91.070312 151.351562 88.324219 C 149.1875 85.570312 145.429688 85.007812 142.554688 87.007812 Z M 149.445312 96.324219 C 147.125 98.148438 143.777344 97.4375 142.035156 95.214844 C 140.207031 92.890625 140.921875 89.542969 143.140625 87.800781 C 145.464844 85.976562 148.8125 86.691406 150.554688 88.910156 C 152.242188 91.332031 151.769531 94.5 149.445312 96.324219 Z M 142.554688 87.007812 C 139.683594 89.003906 139.324219 93.054688 141.238281 95.800781 C 143.234375 98.671875 147.285156 99.027344 150.03125 97.117188 C 152.90625 95.121094 153.261719 91.070312 151.351562 88.324219 C 149.1875 85.570312 145.429688 85.007812 142.554688 87.007812 Z M 149.445312 96.324219 C 147.125 98.148438 143.777344 97.4375 142.035156 95.214844 C 140.207031 92.890625 140.921875 89.542969 143.140625 87.800781 C 145.464844 85.976562 148.8125 86.691406 150.554688 88.910156 C 152.242188 91.332031 151.769531 94.5 149.445312 96.324219 Z M 146.449219 103.097656 C 145.785156 105.613281 143.761719 107.664062 140.996094 107.128906 C 140.371094 107.011719 140.226562 107.988281 140.851562 108.109375 C 144.1875 108.75 146.632812 106.253906 147.429688 103.242188 C 147.589844 102.625 146.609375 102.488281 146.449219 103.097656 Z M 127.636719 98.039062 C 124.765625 100.039062 124.40625 104.089844 126.320312 106.835938 C 128.316406 109.707031 132.367188 110.0625 135.113281 108.152344 C 137.984375 106.152344 138.34375 102.105469 136.429688 99.359375 C 134.269531 96.605469 130.507812 96.042969 127.636719 98.039062 Z M 134.527344 107.355469 C 132.207031 109.179688 128.859375 108.46875 127.113281 106.25 C 125.289062 103.925781 126.003906 100.578125 128.222656 98.835938 C 130.542969 97.011719 133.890625 97.722656 135.636719 99.945312 C 137.324219 102.367188 136.847656 105.535156 134.527344 107.355469 Z M 164.714844 80.019531 C 164.683594 79.96875 164.652344 79.921875 164.621094 79.875 C 163.691406 78.460938 161.742188 78.390625 160.445312 79.246094 C 159.183594 80.078125 158.996094 81.722656 159.578125 82.988281 C 159.578125 82.988281 158.609375 83.707031 158.609375 83.707031 C 158.609375 83.707031 154.75 78.488281 154.75 78.488281 C 153.355469 76.605469 151.007812 76.140625 149.179688 77.496094 C 149.179688 77.496094 147.773438 75.597656 147.773438 75.597656 C 146.660156 74.089844 144.851562 73.570312 143.085938 74.128906 C 142.421875 74.339844 141.828125 74.863281 141.265625 75.277344 C 141.265625 75.277344 116.035156 93.941406 116.035156 93.941406 C 114.273438 95.242188 113.890625 97.804688 115.191406 99.5625 C 115.191406 99.5625 116.648438 101.53125 116.648438 101.53125 C 114.824219 102.871094 114.703125 105.3125 116.039062 107.121094 C 116.039062 107.121094 119.898438 112.335938 119.898438 112.335938 C 119.898438 112.335938 118.636719 113.273438 118.636719 113.273438 C 117.566406 112.289062 116.074219 112.167969 114.804688 113.003906 C 113.394531 113.9375 113.320312 115.886719 114.179688 117.183594 C 114.261719 117.3125 114.355469 117.429688 114.453125 117.535156 C 114.484375 117.585938 114.511719 117.632812 114.546875 117.679688 C 115.476562 119.09375 117.425781 119.164062 118.726562 118.308594 C 119.980469 117.476562 120.171875 115.832031 119.589844 114.566406 C 119.589844 114.566406 120.855469 113.628906 120.855469 113.628906 C 120.855469 113.628906 124.015625 117.902344 124.015625 117.902344 C 125.402344 119.773438 127.757812 120.671875 129.714844 119.195312 C 129.714844 119.195312 130.777344 120.632812 130.777344 120.632812 C 131.671875 121.84375 133.058594 122.410156 134.464844 122.269531 C 135.769531 123.863281 137.996094 124.695312 139.882812 123.433594 C 140.382812 123.101562 140.859375 122.734375 141.339844 122.375 C 141.339844 122.375 163.332031 106.113281 163.332031 106.113281 C 165.40625 104.578125 165.246094 102.089844 163.941406 100.175781 C 164.265625 99.019531 164.058594 97.71875 163.339844 96.640625 C 163.339844 96.640625 162.222656 95.132812 162.222656 95.132812 C 164.148438 93.714844 164.214844 91.285156 162.785156 89.355469 C 162.785156 89.355469 159.5625 84.996094 159.5625 84.996094 C 159.5625 84.996094 160.53125 84.28125 160.53125 84.28125 C 161.601562 85.265625 163.09375 85.386719 164.367188 84.550781 C 165.773438 83.617188 165.847656 81.667969 164.988281 80.371094 C 164.90625 80.242188 164.8125 80.125 164.714844 80.019531 Z M 114.972656 116.597656 C 113.328125 114.605469 116.550781 112.238281 118.1875 114.21875 C 119.609375 116.371094 116.617188 118.585938 114.972656 116.597656 Z M 128.75 117.894531 C 127.488281 118.769531 125.777344 118.625 124.796875 117.296875 C 124.796875 117.296875 116.640625 106.269531 116.640625 106.269531 C 115.667969 104.953125 116.046875 103.277344 117.242188 102.332031 C 117.242188 102.332031 128.75 117.894531 128.75 117.894531 Z M 116.996094 94.460938 C 116.996094 94.460938 140.734375 76.902344 140.734375 76.902344 C 142.453125 75.628906 144.648438 73.8125 146.535156 75.667969 C 146.535156 75.667969 115.6875 98.484375 115.6875 98.484375 C 114.957031 97 115.699219 95.417969 116.996094 94.460938 Z M 162.167969 104.976562 C 162.167969 104.976562 142.398438 119.597656 142.398438 119.597656 C 140.507812 120.996094 138.046875 123.632812 135.585938 121.9375 C 135.421875 121.824219 135.28125 121.683594 135.152344 121.535156 C 135.226562 121.507812 135.304688 121.480469 135.378906 121.445312 C 135.949219 121.207031 136.476562 120.738281 136.972656 120.371094 C 136.972656 120.371094 162.125 101.765625 162.125 101.765625 C 162.515625 101.476562 162.832031 101.136719 163.074219 100.761719 C 163.859375 102.25 163.710938 103.835938 162.167969 104.976562 Z M 162.179688 96.734375 C 164.15625 99.6875 160.867188 101.46875 158.886719 102.933594 C 158.886719 102.933594 135.609375 120.148438 135.609375 120.148438 C 135.167969 120.476562 134.753906 120.675781 134.363281 120.78125 C 134.285156 120.78125 134.210938 120.796875 134.140625 120.832031 C 132.195312 121.164062 130.828125 119.042969 129.679688 117.488281 C 129.679688 117.488281 116.234375 99.308594 116.234375 99.308594 C 116.234375 99.308594 147.164062 76.433594 147.164062 76.433594 C 147.164062 76.433594 162.179688 96.734375 162.179688 96.734375 Z M 161.890625 89.808594 C 162.871094 91.132812 162.582031 92.921875 161.277344 93.855469 C 161.277344 93.855469 149.753906 78.273438 149.753906 78.273438 C 150.992188 77.328125 152.796875 77.511719 153.761719 78.8125 C 153.761719 78.8125 161.890625 89.808594 161.890625 89.808594 Z M 160.613281 82.839844 C 159.191406 80.6875 162.183594 78.472656 163.828125 80.460938 C 165.472656 82.453125 162.25 84.820312 160.613281 82.839844 Z M 150.03125 97.117188 C 152.90625 95.121094 153.261719 91.070312 151.351562 88.324219 C 149.1875 85.570312 145.429688 85.007812 142.554688 87.007812 C 139.683594 89.003906 139.324219 93.054688 141.238281 95.800781 C 143.234375 98.671875 147.285156 99.027344 150.03125 97.117188 Z M 143.140625 87.800781 C 145.464844 85.976562 148.8125 86.691406 150.554688 88.910156 C 152.242188 91.332031 151.769531 94.5 149.445312 96.324219 C 147.125 98.148438 143.777344 97.4375 142.035156 95.214844 C 140.207031 92.890625 140.921875 89.542969 143.140625 87.800781 Z M 140.996094 107.128906 C 140.371094 107.011719 140.226562 107.988281 140.851562 108.109375 C 144.1875 108.75 146.632812 106.253906 147.429688 103.242188 C 147.589844 102.625 146.609375 102.488281 146.449219 103.097656 C 145.785156 105.613281 143.761719 107.664062 140.996094 107.128906 Z M 135.113281 108.152344 C 137.984375 106.152344 138.34375 102.105469 136.429688 99.359375 C 134.269531 96.605469 130.507812 96.042969 127.636719 98.039062 C 124.765625 100.039062 124.40625 104.089844 126.320312 106.835938 C 128.316406 109.707031 132.367188 110.0625 135.113281 108.152344 Z M 128.222656 98.835938 C 130.542969 97.011719 133.890625 97.722656 135.636719 99.945312 C 137.324219 102.367188 136.847656 105.535156 134.527344 107.355469 C 132.207031 109.179688 128.859375 108.46875 127.113281 106.25 C 125.289062 103.925781 126.003906 100.578125 128.222656 98.835938 Z M 128.222656 98.835938 " fill-opacity="1" fill-rule="nonzero"/></g></g></g></g></g></svg>